<?xml version="1.0" encoding="utf-8"?>
<!-- Generator: Adobe Illustrator 23.1.0, SVG Export Plug-In . SVG Version: 6.00 Build 0)  -->
<svg version="1.1" id="Слой_1" xmlns="http://www.w3.org/2000/svg" xmlns:xlink="http://www.w3.org/1999/xlink" x="0px" y="0px"
	 viewBox="0 0 40 40" style="enable-background:new 0 0 40 40;" xml:space="preserve">
<path d="M19.9,35.7c6.5,0,12.2-3.9,14.6-9.8l0.8-2l-2,0.6c-1.2,0.4-2.6,0.6-3.9,0.6c-8,0-14.6-6.6-14.6-14.6c0-1.3,0.2-2.6,0.6-3.9
	l0.6-2L14,5.4c-5.9,2.4-9.8,8.1-9.9,14.5C4.1,28.6,11.2,35.7,19.9,35.7z M17.1,10.5c0,6.8,5.6,12.4,12.4,12.4c3.2,0,6.2-1.2,8.5-3.4
	c0,0.2,0,0.3,0,0.5c0,9.9-8.1,18-18,18S2,29.9,2,20S10.1,2,20,2c0.2,0,0.3,0,0.5,0C18.3,4.3,17.1,7.3,17.1,10.5z"/>
</svg>
