<?xml version="1.0" encoding="utf-8"?>
<!-- Generator: Adobe Illustrator 23.1.0, SVG Export Plug-In . SVG Version: 6.00 Build 0)  -->
<svg version="1.1" id="Слой_1" xmlns="http://www.w3.org/2000/svg" xmlns:xlink="http://www.w3.org/1999/xlink" x="0px" y="0px"
	 viewBox="0 0 40 40" style="enable-background:new 0 0 40 40;" xml:space="preserve">
<path d="M14.4,6.3c-0.4,1.4-0.6,2.8-0.6,4.2c0,8.6,7,15.6,15.6,15.6c1.4,0,2.9-0.2,4.2-0.6c-2.2,5.4-7.5,9.2-13.7,9.2
	c-8.1,0-14.8-6.6-14.8-14.8C5.2,13.8,9,8.5,14.4,6.3z M20,1C9.5,1,1,9.5,1,20s8.5,19,19,19s19-8.5,19-19c0-1-0.1-1.9-0.2-2.9
	c-2.1,2.9-5.4,4.8-9.3,4.8c-6.3,0-11.4-5.1-11.4-11.4c0-3.8,1.9-7.2,4.8-9.3C21.9,1.1,21,1,20,1L20,1z"/>
</svg>
