<?xml version="1.0" encoding="utf-8"?>
<!-- Generator: Adobe Illustrator 23.1.0, SVG Export Plug-In . SVG Version: 6.00 Build 0)  -->
<svg version="1.1" id="Слой_1" xmlns="http://www.w3.org/2000/svg" xmlns:xlink="http://www.w3.org/1999/xlink" x="0px" y="0px"
	 viewBox="0 0 32 32" style="enable-background:new 0 0 32 32;" xml:space="preserve">
<g>
	<path d="M11.1,26.5l-0.2-3.3c0,0,0-0.1,0-0.1c0,0-0.1,0-0.1,0H6.4c-0.1,0-0.2,0-0.2,0.1l-1,3.3c-0.1,0.2-0.2,0.3-0.4,0.3H2
		c-0.2,0-0.3-0.1-0.2-0.4l7-21C8.8,5.3,9,5.1,9.2,5.1h3.2c0.1,0,0.2,0,0.2,0.1s0.1,0.1,0.1,0.2l1.9,21c0,0.3-0.1,0.4-0.4,0.4h-2.8
		C11.2,26.9,11.1,26.7,11.1,26.5z M7.3,20.3h3.3c0.1,0,0.2-0.1,0.2-0.2l-0.5-9.4c0-0.1,0-0.1-0.1-0.1c0,0-0.1,0-0.1,0.1l-2.9,9.4
		C7.2,20.2,7.2,20.3,7.3,20.3z"/>
	<path d="M27.1,25.3c-1.2,1-2.7,1.6-4.4,1.6h-5.3c-0.2,0-0.3-0.1-0.3-0.4l2.6-21c0-0.1,0.1-0.2,0.2-0.3c0.1-0.1,0.2-0.1,0.3-0.1h4.7
		c1.7,0,3.1,0.4,4,1.2c1,0.8,1.4,2,1.4,3.6c0,0.2,0,0.6-0.1,1c-0.3,2.1-1.2,3.6-2.8,4.6c-0.1,0.1-0.2,0.1-0.1,0.2
		c1.3,1,1.9,2.3,1.9,4.2c0,0.2,0,0.5-0.1,1C29,22.8,28.3,24.2,27.1,25.3z M24.8,22.9c0.5-0.6,0.9-1.4,1-2.4c0-0.2,0-0.4,0-0.7
		c0-0.8-0.2-1.5-0.6-2c-0.4-0.5-0.9-0.7-1.6-0.7h-1.7c-0.1,0-0.2,0.1-0.2,0.2l-0.8,6.4c0,0.1,0,0.2,0.1,0.2h1.7
		C23.6,23.7,24.3,23.4,24.8,22.9z M22.8,8.4l-0.7,5.8c0,0.1,0,0.2,0.1,0.2h1.5c0.8,0,1.5-0.3,2-0.8c0.5-0.5,0.9-1.3,1-2.2
		c0-0.1,0-0.4,0-0.6c0-0.8-0.2-1.4-0.6-1.8c-0.4-0.4-1-0.7-1.7-0.7H23C22.9,8.3,22.8,8.3,22.8,8.4z"/>
</g>
</svg>
