<?xml version="1.0" encoding="utf-8"?>
<!-- Generator: Adobe Illustrator 23.1.0, SVG Export Plug-In . SVG Version: 6.00 Build 0)  -->
<svg version="1.1" id="Слой_1" xmlns="http://www.w3.org/2000/svg" xmlns:xlink="http://www.w3.org/1999/xlink" x="0px" y="0px"
	 viewBox="0 0 45 45" style="enable-background:new 0 0 45 45;" xml:space="preserve">
<style type="text/css">
	.st0{fill:#666666;stroke:#666666;stroke-width:0.5;stroke-miterlimit:10;}
</style>
<path class="st0" d="M22.5,16.9c1.1,0,2.2,0.3,3.1,0.9s1.6,1.5,2.1,2.5c0.4,1,0.5,2.2,0.3,3.3c-0.2,1.1-0.8,2.1-1.5,2.9
	c-0.8,0.8-1.8,1.3-2.9,1.5s-2.2,0.1-3.3-0.3c-1-0.4-1.9-1.1-2.5-2.1c-0.6-0.9-0.9-2-0.9-3.1c0-1.5,0.6-2.9,1.6-4
	C19.6,17.5,21,16.9,22.5,16.9z M22.5,14.1c-1.7,0-3.3,0.5-4.7,1.4c-1.4,0.9-2.5,2.2-3.1,3.8c-0.6,1.5-0.8,3.2-0.5,4.9
	c0.3,1.6,1.1,3.1,2.3,4.3c1.2,1.2,2.7,2,4.3,2.3s3.3,0.2,4.9-0.5c1.5-0.6,2.9-1.7,3.8-3.1s1.4-3,1.4-4.7c0-2.2-0.9-4.4-2.5-6
	C26.9,15,24.7,14.1,22.5,14.1z"/>
<path class="st0" d="M8.6,8.6L8.6,8.6c0.5-0.5,1.4-0.6,2,0l2.9,2.9c0.5,0.5,0.5,1.4,0,2l0,0c-0.5,0.5-1.4,0.5-2,0l-2.9-2.9
	C8,10,8,9.1,8.6,8.6z"/>
<path class="st0" d="M4.2,21.1h4.2c0.8,0,1.4,0.6,1.4,1.4l0,0c0,0.8-0.6,1.4-1.4,1.4H4.2c-0.8,0-1.4-0.6-1.4-1.4l0,0
	C2.8,21.7,3.4,21.1,4.2,21.1z"/>
<path class="st0" d="M8.6,34.4l2.9-2.9c0.5-0.5,1.4-0.5,2,0l0,0c0.5,0.5,0.5,1.4,0,2l-2.9,2.9c-0.5,0.5-1.4,0.5-2,0l0,0
	C8,35.9,8,35,8.6,34.4z"/>
<path class="st0" d="M22.5,35.2L22.5,35.2c0.8,0,1.4,0.6,1.4,1.4v4.2c0,0.8-0.6,1.4-1.4,1.4l0,0c-0.8,0-1.4-0.6-1.4-1.4v-4.2
	C21.1,35.8,21.7,35.2,22.5,35.2z"/>
<path class="st0" d="M31.5,31.5L31.5,31.5c0.5-0.5,1.4-0.6,2,0l2.9,2.9c0.5,0.5,0.5,1.4,0,2l0,0c-0.5,0.5-1.4,0.5-2,0l-2.9-2.9
	C30.9,32.9,30.9,32,31.5,31.5z"/>
<path class="st0" d="M36.6,21.1h4.2c0.8,0,1.4,0.6,1.4,1.4l0,0c0,0.8-0.6,1.4-1.4,1.4h-4.2c-0.8,0-1.4-0.6-1.4-1.4l0,0
	C35.2,21.7,35.8,21.1,36.6,21.1z"/>
<path class="st0" d="M31.5,11.5l2.9-2.9c0.5-0.5,1.4-0.5,2,0l0,0c0.5,0.5,0.5,1.4,0,2l-2.9,2.9c-0.5,0.5-1.4,0.5-2,0l0,0
	C30.9,13,30.9,12.1,31.5,11.5z"/>
<path class="st0" d="M22.5,2.8L22.5,2.8c0.8,0,1.4,0.6,1.4,1.4v4.2c0,0.8-0.6,1.4-1.4,1.4l0,0c-0.8,0-1.4-0.6-1.4-1.4V4.2
	C21.1,3.4,21.7,2.8,22.5,2.8z"/>
</svg>
