<?xml version="1.0" encoding="utf-8"?>
<!-- Generator: Adobe Illustrator 23.1.0, SVG Export Plug-In . SVG Version: 6.00 Build 0)  -->
<svg version="1.1" id="Слой_1" xmlns="http://www.w3.org/2000/svg" xmlns:xlink="http://www.w3.org/1999/xlink" x="0px" y="0px"
	 viewBox="0 0 60 60" style="enable-background:new 0 0 60 60;" xml:space="preserve">
<style type="text/css">
	.st0{fill:#FFFFFF;}
	.st1{fill:#53C1DE;}
</style>
<g>
	<path class="st0" d="M2,29.9c0,4.2,4.1,8.2,10.6,10.4c-1.3,6.5-0.2,11.8,3.3,13.9c3.7,2.1,9.1,0.7,14.3-3.9c5,4.3,10.2,6.1,13.7,4
		c3.7-2.1,4.8-7.8,3.4-14.5c6.8-2.2,10.6-5.6,10.6-9.9c0-4.1-4.1-7.7-10.6-9.9c1.4-7,0.2-12.2-3.5-14.3c-3.6-2.1-8.7-0.3-13.9,4.2
		c-5.3-4.7-10.4-6.2-14.2-4c-3.6,2.1-4.6,7.4-3.3,14.1C6.3,22.1,2,25.8,2,29.9z"/>
	<path class="st1" d="M46.1,22.2c-0.5-0.2-1.1-0.3-1.6-0.5c0.1-0.4,0.2-0.7,0.2-1.1c1.2-5.9,0.4-10.6-2.3-12.2
		c-2.6-1.5-6.8,0.1-11.1,3.8c-0.4,0.4-0.8,0.7-1.2,1.1c-0.3-0.3-0.5-0.5-0.8-0.8c-4.5-4-9-5.7-11.7-4.1c-2.6,1.5-3.4,6-2.3,11.5
		c0.1,0.5,0.2,1.1,0.4,1.6c-0.6,0.2-1.3,0.4-1.8,0.6c-5.3,1.8-8.6,4.7-8.6,7.7c0,3.1,3.6,6.2,9.1,8c0.4,0.1,0.9,0.3,1.3,0.4
		c-0.2,0.6-0.3,1.2-0.4,1.8c-1,5.5-0.2,9.8,2.4,11.3c2.7,1.5,7.2,0,11.5-3.9c0.3-0.3,0.7-0.6,1-1c0.4,0.4,0.9,0.8,1.3,1.2
		c4.2,3.6,8.4,5.1,11,3.6c2.7-1.5,3.5-6.2,2.4-11.9c-0.1-0.4-0.2-0.9-0.3-1.3c0.3-0.1,0.6-0.2,0.9-0.3c5.7-1.9,9.4-4.9,9.4-8.1
		C54.9,26.9,51.5,24,46.1,22.2L46.1,22.2L46.1,22.2z"/>
	<path class="st0" d="M44.8,36c-0.3,0.1-0.6,0.2-0.8,0.3c-0.6-2-1.5-4.1-2.5-6.3c1-2.1,1.8-4.2,2.4-6.2c0.5,0.1,1,0.3,1.5,0.5
		c4.6,1.6,7.4,3.9,7.4,5.7C52.8,31.9,49.8,34.3,44.8,36L44.8,36L44.8,36z M42.8,40c0.5,2.5,0.6,4.8,0.2,6.6
		c-0.3,1.6-0.9,2.7-1.6,3.1c-1.6,0.9-4.9-0.3-8.5-3.4c-0.4-0.4-0.8-0.7-1.3-1.1c1.4-1.5,2.8-3.3,4.2-5.3c2.4-0.2,4.7-0.6,6.7-1
		C42.6,39.2,42.7,39.6,42.8,40L42.8,40L42.8,40z M22.1,49.5c-1.5,0.5-2.8,0.6-3.5,0.1c-1.6-0.9-2.2-4.4-1.3-9.1
		c0.1-0.5,0.2-1.1,0.4-1.7c2,0.5,4.3,0.8,6.7,1c1.4,1.9,2.8,3.7,4.3,5.3c-0.3,0.3-0.6,0.6-0.9,0.9C25.8,47.7,23.8,48.9,22.1,49.5
		L22.1,49.5L22.1,49.5z M15,36c-2.4-0.8-4.4-1.9-5.8-3.1c-1.2-1.1-1.9-2.1-1.9-3c0-1.8,2.7-4.1,7.2-5.7c0.5-0.2,1.1-0.4,1.7-0.5
		c0.6,2,1.4,4.1,2.4,6.3c-1,2.2-1.8,4.3-2.5,6.4C15.8,36.2,15.4,36.1,15,36L15,36L15,36z M17.4,19.6c-0.9-4.8-0.3-8.4,1.2-9.3
		c1.7-1,5.3,0.4,9.2,3.9c0.2,0.2,0.5,0.5,0.7,0.7c-1.4,1.6-2.9,3.3-4.2,5.2c-2.3,0.2-4.6,0.6-6.6,1C17.6,20.6,17.5,20.1,17.4,19.6
		L17.4,19.6L17.4,19.6z M38.8,24.9c-0.5-0.9-1-1.7-1.5-2.5c1.6,0.2,3.1,0.5,4.5,0.8c-0.4,1.4-1,2.8-1.6,4.3
		C39.8,26.6,39.3,25.8,38.8,24.9L38.8,24.9L38.8,24.9z M30.1,16.4c1,1.1,2,2.2,2.9,3.5c-1,0-2-0.1-3-0.1c-1,0-2,0-2.9,0.1
		C28.1,18.6,29.1,17.4,30.1,16.4L30.1,16.4L30.1,16.4z M21.3,24.9c-0.5,0.9-1,1.7-1.4,2.6c-0.6-1.5-1.1-2.9-1.6-4.3
		c1.4-0.3,2.9-0.6,4.5-0.8C22.3,23.2,21.8,24.1,21.3,24.9L21.3,24.9L21.3,24.9z M22.8,37.6c-1.6-0.2-3.2-0.4-4.6-0.7
		c0.4-1.4,1-2.9,1.6-4.4c0.4,0.9,0.9,1.7,1.4,2.6h0C21.8,35.9,22.3,36.8,22.8,37.6L22.8,37.6L22.8,37.6z M30.1,43.6
		c-1-1.1-2-2.3-3-3.6c1,0,1.9,0.1,2.9,0.1c1,0,2,0,3-0.1C32.1,41.4,31.1,42.6,30.1,43.6L30.1,43.6L30.1,43.6z M40.3,32.4
		c0.7,1.5,1.2,3,1.7,4.4c-1.4,0.3-3,0.6-4.6,0.8c0.5-0.8,1-1.7,1.5-2.5C39.3,34.2,39.8,33.3,40.3,32.4L40.3,32.4L40.3,32.4z M37,34
		c-0.8,1.3-1.6,2.6-2.4,3.8c-1.5,0.1-3,0.2-4.6,0.2c-1.5,0-3.1,0-4.5-0.1c-0.8-1.2-1.7-2.5-2.4-3.9h0c-0.8-1.3-1.5-2.7-2.1-4
		c0.6-1.3,1.3-2.7,2.1-4l0,0c0.8-1.3,1.6-2.6,2.4-3.8c1.5-0.1,3-0.2,4.5-0.2h0c1.5,0,3.1,0.1,4.5,0.2c0.8,1.2,1.6,2.5,2.4,3.8
		c0.8,1.3,1.5,2.7,2.1,4C38.5,31.3,37.8,32.6,37,34L37,34L37,34z M41.4,10.3c1.7,1,2.3,4.8,1.3,9.9c-0.1,0.3-0.1,0.7-0.2,1
		c-2.1-0.5-4.3-0.8-6.6-1.1c-1.4-1.9-2.8-3.7-4.2-5.2c0.4-0.4,0.8-0.7,1.1-1C36.4,10.6,39.8,9.3,41.4,10.3L41.4,10.3L41.4,10.3z"/>
	<path class="st1" d="M30.1,25.5c2.5,0,4.4,2,4.4,4.4c0,2.5-2,4.4-4.4,4.4c-2.5,0-4.4-2-4.4-4.4C25.6,27.5,27.6,25.5,30.1,25.5"/>
</g>
</svg>
