<?xml version="1.0" encoding="utf-8"?>
<!-- Generator: Adobe Illustrator 23.1.0, SVG Export Plug-In . SVG Version: 6.00 Build 0)  -->
<svg version="1.1" id="Слой_1" xmlns="http://www.w3.org/2000/svg" xmlns:xlink="http://www.w3.org/1999/xlink" x="0px" y="0px"
	 viewBox="0 0 60 60" style="enable-background:new 0 0 60 60;" xml:space="preserve">
<style type="text/css">
	.st0{fill:#F7DF1E;}
</style>
<g>
	<path class="st0" d="M2.5,2.5h55v55h-55V2.5z"/>
	<path d="M17,48.5l4.2-2.5c0.8,1.4,1.6,2.7,3.3,2.7c1.7,0,2.8-0.7,2.8-3.2V27.8h5.2v17.6c0,5.4-3.1,7.8-7.7,7.8
		C20.6,53.2,18.2,51,17,48.5"/>
	<path d="M35.2,47.9l4.2-2.4c1.1,1.8,2.5,3.1,5.1,3.1c2.1,0,3.5-1.1,3.5-2.5c0-1.8-1.4-2.4-3.8-3.4L43,42.1
		c-3.7-1.6-6.2-3.6-6.2-7.8c0-3.9,3-6.8,7.6-6.8c3.3,0,5.6,1.1,7.3,4.1l-4,2.6c-0.9-1.6-1.8-2.2-3.3-2.2c-1.5,0-2.5,1-2.5,2.2
		c0,1.6,1,2.2,3.2,3.1l1.3,0.6c4.4,1.9,6.9,3.8,6.9,8.1c0,4.7-3.7,7.2-8.6,7.2C39.9,53.2,36.8,50.9,35.2,47.9"/>
</g>
</svg>
